<?xml version="1.0" standalone="no"?>
<!DOCTYPE svg PUBLIC "-//W3C//DTD SVG 20010904//EN"
 "http://www.w3.org/TR/2001/REC-SVG-20010904/DTD/svg10.dtd">
<svg version="1.0" xmlns="http://www.w3.org/2000/svg"
 width="789.000000pt" height="1119.000000pt" viewBox="0 0 789.000000 1119.000000"
 preserveAspectRatio="xMidYMid meet">
<metadata>
Created by potrace 1.16, written by Peter Selinger 2001-2019
</metadata>
<g transform="translate(0.000000,1119.000000) scale(0.100000,-0.100000)"
fill="#000000" stroke="none">
<path d="M2200 9740 l0 -250 805 0 805 0 0 -1785 0 -1785 250 0 250 0 0 1785
0 1785 820 0 820 0 0 250 0 250 -1875 0 -1875 0 0 -250z"/>
<path d="M5632 8333 c-105 -182 -139 -249 -130 -254 8 -4 63 -43 123 -87 432
-313 765 -767 935 -1272 152 -455 175 -965 63 -1435 -236 -998 -1063 -1779
-2068 -1953 -832 -145 -1659 107 -2259 688 -431 418 -693 936 -778 1540 -17
126 -17 534 0 660 70 495 260 936 567 1315 123 152 431 437 534 495 15 8 -14
63 -216 407 l-54 93 -77 -56 c-150 -110 -268 -211 -392 -334 -962 -959 -1202
-2437 -590 -3645 174 -345 356 -593 626 -855 726 -702 1726 -1013 2724 -844
645 109 1230 412 1695 878 491 493 787 1081 898 1786 18 115 21 180 22 440 0
272 -3 322 -24 460 -90 595 -331 1132 -709 1580 -106 127 -323 337 -451 439
-107 85 -274 201 -289 201 -4 0 -72 -111 -150 -247z"/>
</g>
</svg>